<svg width="28" height="16" viewBox="0 0 28 16" fill="none" xmlns="http://www.w3.org/2000/svg">
<path d="M2.00002 2.66667H26C26.3536 2.66667 26.6928 2.52619 26.9428 2.27614C27.1929 2.02609 27.3334 1.68696 27.3334 1.33333C27.3334 0.979711 27.1929 0.640573 26.9428 0.390525C26.6928 0.140476 26.3536 0 26 0H2.00002C1.6464 0 1.30726 0.140476 1.05721 0.390525C0.807163 0.640573 0.666687 0.979711 0.666687 1.33333C0.666687 1.68696 0.807163 2.02609 1.05721 2.27614C1.30726 2.52619 1.6464 2.66667 2.00002 2.66667ZM26 13.3333H2.00002C1.6464 13.3333 1.30726 13.4738 1.05721 13.7239C0.807163 13.9739 0.666687 14.313 0.666687 14.6667C0.666687 15.0203 0.807163 15.3594 1.05721 15.6095C1.30726 15.8595 1.6464 16 2.00002 16H26C26.3536 16 26.6928 15.8595 26.9428 15.6095C27.1929 15.3594 27.3334 15.0203 27.3334 14.6667C27.3334 14.313 27.1929 13.9739 26.9428 13.7239C26.6928 13.4738 26.3536 13.3333 26 13.3333ZM26 6.66667H2.00002C1.6464 6.66667 1.30726 6.80714 1.05721 7.05719C0.807163 7.30724 0.666687 7.64638 0.666687 8C0.666687 8.35362 0.807163 8.69276 1.05721 8.94281C1.30726 9.19286 1.6464 9.33333 2.00002 9.33333H26C26.3536 9.33333 26.6928 9.19286 26.9428 8.94281C27.1929 8.69276 27.3334 8.35362 27.3334 8C27.3334 7.64638 27.1929 7.30724 26.9428 7.05719C26.6928 6.80714 26.3536 6.66667 26 6.66667Z" fill="white"/>
</svg>
